<?xml version="1.0" standalone="no"?>
<!DOCTYPE svg PUBLIC "-//W3C//DTD SVG 20010904//EN"
 "http://www.w3.org/TR/2001/REC-SVG-20010904/DTD/svg10.dtd">
<svg version="1.0" xmlns="http://www.w3.org/2000/svg"
 width="512.000000pt" height="512.000000pt" viewBox="0 0 512.000000 512.000000"
 preserveAspectRatio="xMidYMid meet">
<metadata>
Created by potrace 1.11, written by Peter Selinger 2001-2013
</metadata>
<g transform="translate(0.000000,512.000000) scale(0.100000,-0.100000)"
fill="#000000" stroke="none">
<path d="M3718 4907 c-116 -40 -206 -114 -256 -212 -11 -22 -156 -404 -322
-850 -272 -731 -303 -817 -307 -885 -13 -187 92 -364 262 -441 74 -33 385 -89
498 -89 78 0 175 28 237 69 93 61 1045 867 1082 916 65 86 82 143 83 275 0
178 -2 182 -437 679 -196 224 -377 426 -401 448 -114 105 -289 141 -439 90z"/>
<path d="M693 4885 c-158 -43 -277 -154 -324 -304 -16 -53 -19 -125 -29 -644
-10 -522 -10 -592 4 -646 23 -89 61 -157 122 -218 109 -110 276 -157 422 -119
43 11 306 142 825 412 419 217 782 410 807 428 186 133 236 421 107 613 -67
99 -251 316 -302 354 -56 42 -140 75 -213 84 -50 6 -1257 55 -1326 54 -23 0
-64 -7 -93 -14z"/>
<path d="M1510 2775 c-90 -8 -186 -19 -214 -25 -66 -14 -152 -61 -204 -111
-37 -36 -745 -978 -816 -1085 -64 -97 -89 -223 -67 -336 16 -78 70 -183 119
-230 48 -45 924 -668 981 -697 63 -32 175 -54 239 -46 114 14 240 78 303 154
42 50 86 142 98 204 6 29 56 426 112 882 77 636 99 845 95 893 -22 219 -199
392 -414 406 -37 3 -141 -2 -232 -9z"/>
<path d="M4341 2179 c-24 -5 -71 -21 -105 -37 -93 -44 -1454 -937 -1509 -991
-147 -141 -178 -352 -80 -545 16 -32 82 -107 181 -208 135 -138 166 -164 231
-196 69 -34 82 -37 180 -40 127 -4 1295 64 1366 79 130 29 259 132 315 251 51
109 51 136 4 717 -23 289 -47 557 -53 595 -31 190 -187 345 -377 376 -68 11
-92 11 -153 -1z"/>
</g>
</svg>
