<?xml version="1.0" standalone="no"?>
<!DOCTYPE svg PUBLIC "-//W3C//DTD SVG 20010904//EN"
 "http://www.w3.org/TR/2001/REC-SVG-20010904/DTD/svg10.dtd">
<svg version="1.0" xmlns="http://www.w3.org/2000/svg"
 width="512.000000pt" height="512.000000pt" viewBox="0 0 512.000000 512.000000"
 preserveAspectRatio="xMidYMid meet">
<metadata>
Created by potrace 1.11, written by Peter Selinger 2001-2013
</metadata>
<g transform="translate(0.000000,512.000000) scale(0.100000,-0.100000)"
fill="#000000" stroke="none">
<path d="M3806 4928 c-79 -11 -143 -36 -206 -79 -102 -69 -132 -119 -220 -359
-33 -91 -67 -181 -75 -200 -7 -19 -53 -141 -100 -270 -48 -129 -90 -244 -95
-255 -5 -11 -41 -108 -81 -215 -39 -107 -80 -214 -90 -237 -11 -24 -19 -46
-19 -49 0 -4 -19 -57 -42 -118 -66 -177 -62 -310 13 -441 69 -122 200 -209
349 -230 25 -3 99 -15 165 -26 267 -46 348 -24 555 151 25 20 95 79 155 130
61 50 119 99 130 108 11 9 153 128 316 264 163 136 312 265 332 288 38 44 78
120 97 182 13 42 16 145 7 203 -9 50 -68 170 -104 211 -16 17 -82 93 -148 169
-66 76 -125 143 -130 149 -6 6 -55 63 -110 126 -55 63 -102 117 -105 120 -3 3
-48 55 -101 115 -150 172 -199 211 -302 245 -59 19 -137 26 -191 18z"/>
<path d="M700 4886 c-88 -20 -151 -56 -217 -123 -67 -68 -92 -108 -117 -192
-17 -59 -28 -399 -30 -981 -1 -328 0 -338 71 -447 47 -72 103 -119 189 -160
60 -29 89 -36 157 -40 110 -7 163 9 357 109 341 177 449 233 535 278 50 26
167 87 260 135 94 48 215 112 270 140 55 29 144 76 198 103 132 68 189 111
240 181 65 88 91 178 85 294 -4 74 -11 105 -35 157 -24 52 -97 156 -167 237
-6 7 -15 18 -21 25 -125 160 -222 226 -359 243 -31 4 -195 12 -406 20 -193 7
-411 16 -495 20 -288 13 -463 13 -515 1z"/>
<path d="M1545 2779 c-38 -4 -103 -9 -142 -13 -95 -8 -158 -24 -213 -54 -99
-55 -71 -20 -702 -867 -70 -93 -131 -174 -135 -180 -5 -5 -32 -43 -61 -84
-114 -163 -125 -340 -31 -507 39 -70 93 -116 324 -279 109 -77 204 -146 211
-153 7 -6 15 -12 18 -12 2 0 69 -46 148 -103 297 -215 328 -235 391 -258 29
-11 86 -22 127 -24 231 -15 440 148 474 372 4 21 9 52 11 68 3 17 7 53 9 80 3
28 7 62 10 75 3 14 8 50 11 80 6 64 12 115 25 220 6 41 12 95 15 120 3 25 7
61 10 80 5 38 33 270 40 335 3 22 7 56 10 75 8 57 14 111 20 170 3 30 8 66 10
80 2 14 6 48 10 75 3 28 8 64 10 80 14 102 16 226 6 274 -37 171 -181 315
-353 350 -56 12 -117 12 -253 0z"/>
<path d="M4365 2184 c-131 -29 -83 -1 -675 -388 -85 -56 -229 -150 -320 -210
-681 -445 -677 -442 -733 -558 -33 -68 -37 -82 -44 -174 -7 -85 8 -156 49
-238 42 -84 314 -361 399 -406 66 -35 159 -57 228 -55 74 3 291 16 351 20 30
2 102 7 160 10 58 3 134 8 170 10 36 2 108 7 160 10 52 3 136 7 185 10 50 3
128 8 175 10 87 5 101 7 155 20 133 33 256 142 308 274 32 78 37 147 23 306
-11 122 -13 146 -20 251 -4 50 -8 104 -10 121 -2 16 -7 70 -11 119 -4 49 -8
103 -10 119 -2 17 -6 73 -10 125 -15 212 -24 274 -51 342 -23 59 -74 130 -124
175 -34 30 -149 91 -185 97 -46 9 -148 14 -170 10z"/>
</g>
</svg>
